<svg xmlns="http://www.w3.org/2000/svg" viewBox="0 0 440 440"><style></style><g id="Layer_3_copy"><path d="M382 110.3L234 24.8c-8.7-5-19.3-5-28 0L58 110.3c-8.7 5-14 14.3-14 24.3v170.9c0 10 5.3 19.3 14 24.3l148 85.5c8.7 5 19.3 5 28 0l148-85.5c8.7-5 14-14.3 14-24.3v-171c0-10-5.3-19.2-14-24.2zM220 355.1c-74.6 0-135.1-60.5-135.1-135.1S145.4 84.9 220 84.9 355.1 145.4 355.1 220 294.6 355.1 220 355.1z"/><path d="M236.3 155.1L220 171.4l-16.3-16.3c-17.6-17.6-46.1-17.6-63.6 0-17.6 17.6-17.6 46.1 0 63.6l34.9 34.9v14.6c0 24.9 20.1 45 45 45s45-20.1 45-45v-14.6l34.9-34.9c17.6-17.6 17.6-46.1 0-63.6-17.6-17.6-46.1-17.6-63.6 0zm-53.9 69.5c-15 0-27.2-12.2-27.2-27.2s12.2-27.2 27.2-27.2 27.2 12.2 27.2 27.2-12.2 27.2-27.2 27.2zm25.6 25.6c-5.1 0-9.2-4.1-9.2-9.2s4.1-9.2 9.2-9.2 9.2 4.1 9.2 9.2-4.1 9.2-9.2 9.2zm24 0c-5.1 0-9.2-4.1-9.2-9.2s4.1-9.2 9.2-9.2 9.2 4.1 9.2 9.2-4.1 9.2-9.2 9.2zm25.6-25.6c-15 0-27.2-12.2-27.2-27.2s12.2-27.2 27.2-27.2 27.2 12.2 27.2 27.2-12.2 27.2-27.2 27.2z"/></g></svg>