<?xml version="1.0" encoding="utf-8"?>
<!-- Generator: Adobe Illustrator 23.1.1, SVG Export Plug-In . SVG Version: 6.00 Build 0)  -->
<svg version="1.1" id="Layer_1" xmlns="http://www.w3.org/2000/svg" xmlns:xlink="http://www.w3.org/1999/xlink" x="0px" y="0px"
	 viewBox="0 0 440 440" style="enable-background:new 0 0 440 440;" xml:space="preserve">
<g id="Layer_3_copy">
	<path d="M382,110.3L234,24.8c-8.7-5-19.3-5-28,0L58,110.3c-8.7,5-14,14.3-14,24.3v170.9c0,10,5.3,19.3,14,24.3l148,85.5
		c8.7,5,19.3,5,28,0l148-85.5c8.7-5,14-14.3,14-24.3v-171C396,124.5,390.7,115.3,382,110.3z M220,355.1
		c-74.6,0-135.1-60.5-135.1-135.1S145.4,84.9,220,84.9S355.1,145.4,355.1,220S294.6,355.1,220,355.1z"/>
	<path d="M236.3,155.1L220,171.4l-16.3-16.3c-17.6-17.6-46.1-17.6-63.6,0c-17.6,17.6-17.6,46.1,0,63.6l34.9,34.9v14.6
		c0,24.9,20.1,45,45,45s45-20.1,45-45v-14.6l34.9-34.9c17.6-17.6,17.6-46.1,0-63.6C282.3,137.5,253.8,137.5,236.3,155.1L236.3,155.1
		z M182.4,224.6c-15,0-27.2-12.2-27.2-27.2s12.2-27.2,27.2-27.2s27.2,12.2,27.2,27.2S197.4,224.6,182.4,224.6z M208,250.2
		c-5.1,0-9.2-4.1-9.2-9.2s4.1-9.2,9.2-9.2s9.2,4.1,9.2,9.2S213.1,250.2,208,250.2z M232,250.2c-5.1,0-9.2-4.1-9.2-9.2
		s4.1-9.2,9.2-9.2s9.2,4.1,9.2,9.2S237.1,250.2,232,250.2z M257.6,224.6c-15,0-27.2-12.2-27.2-27.2s12.2-27.2,27.2-27.2
		s27.2,12.2,27.2,27.2S272.6,224.6,257.6,224.6z"/>
</g>
</svg>
